Coordinates
version=1
nRows=13
nColumns=38
inDegrees=no

Units are S.I. units (second, meters, Newtons, ...)
If the header above contains a line with 'inDegrees', this indicates whether rotational values are in degrees (yes) or radians (no).

endheader
time	pelvis_tilt	pelvis_list	pelvis_rotation	pelvis_tx	pelvis_ty	pelvis_tz	hip_flexion_r	hip_adduction_r	hip_rotation_r	knee_angle_r	ankle_angle_r	subtalar_angle_r	mtp_angle_r	hip_flexion_l	hip_adduction_l	hip_rotation_l	knee_angle_l	ankle_angle_l	subtalar_angle_l	mtp_angle_l	lumbar_extension	lumbar_bending	lumbar_rotation	arm_flex_r	arm_add_r	arm_rot_r	elbow_flex_r	pro_sup_r	wrist_flex_r	wrist_dev_r	arm_flex_l	arm_add_l	arm_rot_l	elbow_flex_l	pro_sup_l	wrist_flex_l	wrist_dev_l
1.79	-0.116343	1.34267	-1.3342	0.859971	-0.211263	0.937952	0.114629	-0.0444958	-0.224275	0	-0.331368	0	0	-0.485246	-0.081081	-0.375438	0.245226	-0.114723	0	0	-0.388281	0.0588427	-0.24746	0.17155	-0.515703	1.23265	0.700165	0.218756	0	0	-0.124052	-0.47718	-0.0262785	1.16132	1.53954	0	0
1.8	-0.1053	1.34847	-1.34442	0.858712	-0.222696	0.93578	0.110039	-0.0425021	-0.232553	0	-0.328208	0	0	-0.489106	-0.0815354	-0.37379	0.251884	-0.112172	0	0	-0.382484	0.054794	-0.247916	0.168137	-0.512695	1.23217	0.697725	0.218724	0	0	-0.120362	-0.478355	-0.0259183	1.16276	1.53984	0	0
1.81	-0.0994872	1.35497	-1.34829	0.857576	-0.234275	0.933765	0.109325	-0.0408097	-0.241605	0	-0.311261	0	0	-0.490557	-0.0840247	-0.371877	0.261773	-0.106837	0	0	-0.375199	0.052092	-0.249924	0.165587	-0.506769	1.23341	0.690196	0.219103	0	0	-0.118195	-0.477928	-0.0273682	1.16276	1.54201	0	0
1.82	-0.096066	1.35749	-1.34921	0.856598	-0.245846	0.932187	0.10743	-0.03894	-0.25161	0	-0.309512	0	0	-0.496334	-0.0876605	-0.369827	0.269227	-0.107127	0	0	-0.372693	0.0521087	-0.251659	0.163254	-0.504676	1.23292	0.688863	0.218718	0	0	-0.115816	-0.477227	-0.0279071	1.16292	1.54164	0	0
1.83	-0.0976841	1.35845	-1.34276	0.855817	-0.257549	0.930932	0.106063	-0.0363874	-0.26452	0	-0.310131	0	0	-0.502171	-0.0939372	-0.366916	0.278495	-0.108276	0	0	-0.371273	0.0545599	-0.255112	0.160885	-0.502184	1.23219	0.686651	0.218113	0	0	-0.114092	-0.475792	-0.0285691	1.16231	1.54125	0	0
1.84	-0.105857	1.35737	-1.33032	0.854951	-0.269431	0.930015	0.104183	-0.0316445	-0.272708	0	-0.315043	0	0	-0.5099	-0.101938	-0.364143	0.2877	-0.110709	0	0	-0.371457	0.0589947	-0.258225	0.159081	-0.499685	1.23174	0.684279	0.217471	0	0	-0.113939	-0.47377	-0.0299371	1.16154	1.54087	0	0
1.85	-0.11982	1.35431	-1.313	0.85397	-0.281528	0.929428	0.100676	-0.0243696	-0.272874	0	-0.322973	0	0	-0.51985	-0.111305	-0.362142	0.296211	-0.114938	0	0	-0.373177	0.0651805	-0.260567	0.1577	-0.497341	1.23182	0.681953	0.217008	0	0	-0.115534	-0.47101	-0.0322194	1.16078	1.54047	0	0
1.86	-0.137072	1.35007	-1.29246	0.853058	-0.293954	0.929138	0.0949744	-0.0150484	-0.26885	0	-0.330719	0	0	-0.523599	-0.121564	-0.361125	0.304954	-0.121288	0	0	-0.375619	0.0729329	-0.26287	0.156275	-0.495302	1.23227	0.67955	0.216684	0	0	-0.1188	-0.46723	-0.0351933	1.15968	1.5404	0	0
1.87	-0.157437	1.3461	-1.269	0.852077	-0.306658	0.928995	0.0881443	-0.00474195	-0.259985	0	-0.337829	0	0	-0.523599	-0.132676	-0.36103	0.315694	-0.129249	0	0	-0.377348	0.0816331	-0.265156	0.154567	-0.493127	1.23293	0.676635	0.216465	0	0	-0.123744	-0.462669	-0.0388236	1.15811	1.5407	0	0
1.88	-0.18121	1.34184	-1.24302	0.850968	-0.319578	0.929022	0.0804166	0.00652091	-0.247239	0	-0.357945	0	0	-0.523599	-0.145278	-0.365374	0.330671	-0.144908	0	0	-0.378805	0.0912195	-0.268276	0.154265	-0.490139	1.23577	0.672328	0.216053	0	0	-0.132056	-0.456002	-0.0469299	1.15678	1.54211	0	0
1.89	-0.200469	1.33783	-1.22192	0.849815	-0.332715	0.92926	0.0723959	0.0167718	-0.238626	0	-0.390142	0	0	-0.523599	-0.156397	-0.367578	0.346598	-0.160446	0	0	-0.379789	0.0996618	-0.270957	0.15327	-0.487443	1.23879	0.668677	0.214928	0	0	-0.140957	-0.449268	-0.0539194	1.15455	1.54452	0	0
1.9	-0.21626	1.33428	-1.20464	0.84875	-0.345987	0.929709	0.0635061	0.0235855	-0.229757	0.0019965	-0.427236	0	0	-0.523599	-0.166298	-0.368732	0.365031	-0.180413	0	0	-0.380012	0.107357	-0.274123	0.152681	-0.485305	1.24297	0.665802	0.21324	0	0	-0.15114	-0.441476	-0.0615808	1.1513	1.54822	0	0
1.91	-0.232402	1.33133	-1.18689	0.847169	-0.359599	0.930222	0.054167	0.0370924	-0.241373	0	-0.469838	0	0	-0.523599	-0.177366	-0.368339	0.387161	-0.19831	0	0	-0.378625	0.114174	-0.276545	0.149791	-0.482134	1.24562	0.662513	0.211278	0	0	-0.162023	-0.435656	-0.0663164	1.14726	1.55026	0	0
